<svg xmlns="http://www.w3.org/2000/svg" xmlns:xlink="http://www.w3.org/1999/xlink" width="915" zoomAndPan="magnify" viewBox="0 0 686.25 248.250006" height="331" preserveAspectRatio="xMidYMid meet" version="1.0"><defs><g/><clipPath id="390810c37b"><path d="M 92 2.585938 L 109 2.585938 L 109 20 L 92 20 Z M 92 2.585938 " clip-rule="nonzero"/></clipPath><clipPath id="e474b776f0"><path d="M 99 2.585938 L 109 2.585938 L 109 14 L 99 14 Z M 99 2.585938 " clip-rule="nonzero"/></clipPath><clipPath id="d5254fe432"><path d="M 0.660156 78 L 32 78 L 32 111 L 0.660156 111 Z M 0.660156 78 " clip-rule="nonzero"/></clipPath><clipPath id="223c059104"><path d="M 0.660156 83 L 25 83 L 25 111 L 0.660156 111 Z M 0.660156 83 " clip-rule="nonzero"/></clipPath></defs><path fill="#809fff" d="M 113.636719 79.175781 L 113.636719 79.183594 L 113.628906 79.183594 C 110.105469 88.78125 103.152344 96.734375 94.007812 102.328125 C 86.039062 107.195312 76.417969 110.277344 65.941406 111.105469 C 38.351562 113.273438 15.65625 89.875 15.824219 61.050781 C 15.90625 47.476562 21.320312 35.164062 30.089844 26.144531 C 37.253906 18.765625 46.667969 13.601562 57.242188 11.75 C 57.242188 11.75 57.257812 11.75 57.292969 11.742188 C 60.101562 11.25 62.992188 10.992188 65.941406 10.992188 C 93.628906 10.992188 113.964844 33.210938 116.066406 61.046875 C 116.558594 67.542969 115.671875 73.632812 113.632812 79.175781 Z M 113.636719 79.175781 " fill-opacity="1" fill-rule="nonzero"/><path fill="#4d73ff" d="M 94.007812 102.328125 C 86.042969 107.195312 76.421875 110.277344 65.945312 111.105469 C 38.355469 113.273438 15.65625 89.875 15.828125 61.050781 C 15.90625 47.476562 21.320312 35.164062 30.089844 26.144531 C 30.089844 26.144531 22.039062 35.382812 20.582031 48.578125 C 19.175781 61.285156 24.113281 77.695312 36.472656 91.382812 C 54.203125 111.027344 79.089844 108.222656 94.007812 102.328125 Z M 94.007812 102.328125 " fill-opacity="1" fill-rule="nonzero"/><path fill="#00beff" d="M 113.632812 79.183594 C 113.632812 79.183594 113.632812 79.179688 113.636719 79.175781 L 113.636719 79.183594 Z M 113.632812 79.183594 " fill-opacity="1" fill-rule="nonzero"/><path fill="#b3c6ff" d="M 113.636719 79.175781 C 113.820312 78.636719 120.148438 59.457031 104.164062 33.605469 C 88.328125 7.996094 58.675781 11.558594 57.296875 11.742188 C 60.105469 11.25 62.992188 10.992188 65.945312 10.992188 C 93.632812 10.992188 113.964844 33.210938 116.070312 61.046875 C 116.5625 67.542969 115.675781 73.632812 113.636719 79.175781 Z M 113.636719 79.175781 " fill-opacity="1" fill-rule="nonzero"/><path fill="#f0f5ff" d="M 82.121094 17.410156 C 77.527344 18.027344 74.25 19.070312 72.160156 19.9375 C 63.730469 16.808594 55.1875 15.390625 47.15625 15.632812 C 49.277344 14.957031 51.457031 14.417969 53.6875 14.027344 C 53.6875 14.027344 53.703125 14.027344 53.734375 14.023438 C 56.542969 13.527344 59.433594 13.273438 62.386719 13.273438 C 69.515625 13.273438 76.152344 14.746094 82.121094 17.410156 Z M 82.121094 17.410156 " fill-opacity="1" fill-rule="nonzero"/><path fill="#f0f5ff" d="M 110.402344 51.375 C 105.359375 42.617188 97.820312 34.507812 87.902344 27.953125 C 84.9375 25.996094 81.90625 24.269531 78.835938 22.789062 C 78.792969 22.765625 78.777344 22.757812 78.777344 22.757812 C 78.132812 22.441406 77.476562 22.136719 76.824219 21.84375 C 80.035156 20.636719 83.628906 20.027344 86.648438 19.722656 C 98.125 26.402344 106.574219 37.765625 110.402344 51.375 Z M 110.402344 51.375 " fill-opacity="1" fill-rule="nonzero"/><g clip-path="url(#390810c37b)"><path fill="#809fff" d="M 108.574219 13.984375 C 107.988281 15.574219 106.839844 16.894531 105.320312 17.820312 C 105.3125 17.824219 105.308594 17.832031 105.300781 17.832031 C 105.296875 17.832031 105.289062 17.835938 105.289062 17.835938 C 104.804688 18.132812 104.28125 18.390625 103.726562 18.597656 C 103.617188 18.640625 103.507812 18.679688 103.394531 18.714844 C 103.351562 18.730469 103.304688 18.746094 103.261719 18.757812 C 102.746094 18.933594 102.207031 19.0625 101.648438 19.15625 C 101.539062 19.171875 101.429688 19.1875 101.320312 19.203125 C 101.101562 19.234375 100.882812 19.261719 100.667969 19.277344 C 96.09375 19.636719 92.335938 15.757812 92.363281 10.980469 C 92.378906 8.738281 93.265625 6.707031 94.707031 5.214844 L 94.730469 5.191406 C 95.917969 3.96875 97.476562 3.113281 99.230469 2.804688 L 99.238281 2.804688 C 99.703125 2.726562 100.183594 2.679688 100.671875 2.679688 C 105.257812 2.679688 108.632812 6.363281 108.976562 10.976562 C 109.058594 12.054688 108.914062 13.0625 108.574219 13.980469 Z M 108.574219 13.984375 " fill-opacity="1" fill-rule="nonzero"/></g><path fill="#4d73ff" d="M 105.289062 17.835938 C 104.804688 18.132812 104.28125 18.390625 103.726562 18.597656 C 103.617188 18.640625 103.507812 18.679688 103.394531 18.714844 C 103.351562 18.730469 103.304688 18.746094 103.261719 18.757812 C 102.738281 18.925781 102.195312 19.0625 101.648438 19.15625 C 101.539062 19.171875 101.429688 19.1875 101.320312 19.203125 C 101.101562 19.234375 100.882812 19.261719 100.667969 19.277344 C 96.09375 19.636719 92.335938 15.757812 92.363281 10.980469 C 92.378906 8.738281 93.265625 6.707031 94.707031 5.214844 C 94.550781 5.40625 93.375 6.871094 93.152344 8.914062 C 92.921875 11.019531 93.921875 13.839844 96.234375 15.835938 C 98.878906 18.121094 102.800781 18.65625 105.289062 17.835938 Z M 105.289062 17.835938 " fill-opacity="1" fill-rule="nonzero"/><g clip-path="url(#e474b776f0)"><path fill="#b3c6ff" d="M 108.574219 13.980469 C 108.605469 13.890625 109.152344 11.128906 106.503906 6.847656 C 103.878906 2.601562 99.464844 2.773438 99.234375 2.804688 C 99.703125 2.726562 100.179688 2.679688 100.667969 2.679688 C 105.257812 2.679688 108.628906 6.363281 108.976562 10.976562 C 109.054688 12.054688 108.910156 13.0625 108.570312 13.980469 Z M 108.574219 13.980469 " fill-opacity="1" fill-rule="nonzero"/></g><g clip-path="url(#d5254fe432)"><path fill="#809fff" d="M 30.632812 100.1875 C 29.558594 103.289062 27.449219 105.859375 24.660156 107.671875 C 24.644531 107.679688 24.636719 107.6875 24.621094 107.695312 C 24.613281 107.695312 24.605469 107.707031 24.597656 107.707031 C 23.714844 108.285156 22.746094 108.785156 21.738281 109.191406 C 21.535156 109.269531 21.335938 109.351562 21.132812 109.414062 C 21.050781 109.445312 20.964844 109.476562 20.882812 109.5 C 19.9375 109.84375 18.949219 110.097656 17.925781 110.273438 C 17.730469 110.304688 17.527344 110.335938 17.324219 110.371094 C 16.921875 110.433594 16.523438 110.484375 16.125 110.515625 C 7.734375 111.210938 0.828125 103.648438 0.882812 94.324219 C 0.90625 89.949219 2.539062 85.988281 5.183594 83.078125 L 5.222656 83.035156 C 7.402344 80.648438 10.265625 78.980469 13.476562 78.382812 L 13.492188 78.382812 C 14.347656 78.222656 15.226562 78.136719 16.125 78.136719 C 24.546875 78.136719 30.734375 85.320312 31.375 94.320312 C 31.523438 96.421875 31.253906 98.394531 30.632812 100.183594 Z M 30.632812 100.1875 " fill-opacity="1" fill-rule="nonzero"/></g><g clip-path="url(#223c059104)"><path fill="#4d73ff" d="M 24.601562 107.703125 C 23.71875 108.285156 22.75 108.785156 21.742188 109.191406 C 21.539062 109.265625 21.335938 109.347656 21.132812 109.410156 C 21.054688 109.441406 20.96875 109.472656 20.886719 109.5 C 19.925781 109.824219 18.933594 110.085938 17.929688 110.269531 C 17.734375 110.300781 17.53125 110.332031 17.328125 110.367188 C 16.925781 110.429688 16.527344 110.480469 16.128906 110.511719 C 7.734375 111.210938 0.828125 103.648438 0.882812 94.324219 C 0.90625 89.949219 2.539062 85.988281 5.183594 83.078125 C 4.898438 83.453125 2.742188 86.3125 2.328125 90.292969 C 1.898438 94.40625 3.738281 99.898438 7.984375 103.796875 C 12.839844 108.261719 20.035156 109.304688 24.597656 107.707031 Z M 24.601562 107.703125 " fill-opacity="1" fill-rule="nonzero"/></g><path fill="#b3c6ff" d="M 30.636719 100.183594 C 30.691406 100.007812 31.695312 94.621094 26.835938 86.265625 C 22.019531 77.984375 13.917969 78.324219 13.496094 78.382812 C 14.351562 78.222656 15.230469 78.140625 16.125 78.140625 C 24.550781 78.140625 30.734375 85.324219 31.375 94.320312 C 31.527344 96.421875 31.253906 98.390625 30.636719 100.179688 Z M 30.636719 100.183594 " fill-opacity="1" fill-rule="nonzero"/><path fill="#809fff" d="M 116.679688 100.007812 C 116.34375 100.921875 115.679688 101.679688 114.804688 102.21875 C 114.796875 102.21875 114.796875 102.222656 114.792969 102.222656 C 114.792969 102.222656 114.785156 102.222656 114.785156 102.222656 C 114.507812 102.394531 114.203125 102.542969 113.886719 102.664062 C 113.824219 102.6875 113.761719 102.710938 113.699219 102.730469 C 113.671875 102.738281 113.644531 102.75 113.621094 102.753906 C 113.324219 102.855469 113.011719 102.929688 112.691406 102.984375 C 112.628906 102.992188 112.566406 103 112.503906 103.011719 C 112.375 103.03125 112.253906 103.046875 112.128906 103.054688 C 109.492188 103.261719 107.328125 101.027344 107.34375 98.273438 C 107.347656 96.980469 107.863281 95.8125 108.695312 94.949219 L 108.707031 94.9375 C 109.390625 94.230469 110.289062 93.738281 111.296875 93.5625 L 111.304688 93.5625 C 111.574219 93.515625 111.847656 93.492188 112.128906 93.492188 C 114.777344 93.492188 116.71875 95.613281 116.917969 98.273438 C 116.964844 98.894531 116.882812 99.476562 116.6875 100.003906 Z M 116.679688 100.007812 " fill-opacity="1" fill-rule="nonzero"/><path fill="#4d73ff" d="M 114.789062 102.222656 C 114.511719 102.394531 114.207031 102.542969 113.890625 102.664062 C 113.828125 102.691406 113.761719 102.710938 113.699219 102.730469 C 113.675781 102.738281 113.648438 102.75 113.621094 102.753906 C 113.324219 102.851562 113.007812 102.929688 112.695312 102.984375 C 112.632812 102.992188 112.570312 103 112.507812 103.011719 C 112.378906 103.03125 112.253906 103.046875 112.128906 103.054688 C 109.496094 103.261719 107.328125 101.027344 107.34375 98.273438 C 107.351562 96.980469 107.863281 95.8125 108.695312 94.949219 C 108.605469 95.058594 107.929688 95.90625 107.800781 97.078125 C 107.664062 98.292969 108.242188 99.917969 109.574219 101.066406 C 111.097656 102.386719 113.359375 102.695312 114.792969 102.222656 Z M 114.789062 102.222656 " fill-opacity="1" fill-rule="nonzero"/><path fill="#b3c6ff" d="M 116.679688 100.003906 C 116.699219 99.949219 117.011719 98.359375 115.488281 95.894531 C 113.972656 93.445312 111.429688 93.546875 111.296875 93.5625 C 111.566406 93.515625 111.84375 93.492188 112.125 93.492188 C 114.765625 93.492188 116.710938 95.613281 116.914062 98.273438 C 116.960938 98.894531 116.875 99.476562 116.679688 100.003906 Z M 116.679688 100.003906 " fill-opacity="1" fill-rule="nonzero"/><path fill="#ffffff" d="M 43.25 60.695312 C 43.460938 60.914062 43.566406 61.183594 43.566406 61.507812 L 43.566406 65.460938 C 43.566406 65.894531 43.371094 66.230469 42.988281 66.464844 C 41.765625 67.226562 40.429688 67.601562 38.972656 67.601562 C 37.742188 67.601562 36.601562 67.304688 35.558594 66.699219 C 34.515625 66.097656 33.683594 65.28125 33.074219 64.257812 C 32.464844 63.234375 32.160156 62.113281 32.160156 60.894531 C 32.160156 59.675781 32.464844 58.554688 33.074219 57.53125 C 33.683594 56.503906 34.515625 55.691406 35.558594 55.085938 C 36.601562 54.484375 37.742188 54.183594 38.972656 54.183594 C 40.207031 54.183594 41.277344 54.433594 42.183594 54.929688 C 42.371094 55.03125 42.507812 55.164062 42.601562 55.320312 C 42.695312 55.484375 42.742188 55.65625 42.742188 55.84375 C 42.742188 56.152344 42.640625 56.425781 42.433594 56.65625 C 42.226562 56.886719 41.976562 57 41.675781 57 C 41.488281 57 41.285156 56.949219 41.058594 56.847656 C 40.386719 56.566406 39.691406 56.421875 38.96875 56.421875 C 38.171875 56.421875 37.441406 56.625 36.769531 57.027344 C 36.097656 57.429688 35.566406 57.972656 35.171875 58.65625 C 34.78125 59.339844 34.585938 60.089844 34.585938 60.894531 C 34.585938 61.699219 34.78125 62.445312 35.171875 63.128906 C 35.566406 63.8125 36.097656 64.359375 36.769531 64.761719 C 37.441406 65.164062 38.175781 65.367188 38.96875 65.367188 C 39.316406 65.367188 39.691406 65.335938 40.089844 65.273438 C 40.488281 65.210938 40.835938 65.128906 41.136719 65.03125 L 41.136719 62.605469 L 39.378906 62.605469 C 39.058594 62.605469 38.785156 62.5 38.566406 62.289062 C 38.347656 62.078125 38.238281 61.8125 38.238281 61.488281 C 38.238281 61.164062 38.347656 60.898438 38.566406 60.683594 C 38.785156 60.472656 39.054688 60.371094 39.378906 60.371094 L 42.441406 60.371094 C 42.765625 60.371094 43.035156 60.476562 43.246094 60.695312 Z M 43.25 60.695312 " fill-opacity="1" fill-rule="nonzero"/><path fill="#ffffff" d="M 47.71875 67.089844 C 47.5 67.308594 47.230469 67.414062 46.90625 67.414062 C 46.578125 67.414062 46.332031 67.304688 46.121094 67.089844 C 45.90625 66.871094 45.804688 66.605469 45.804688 66.277344 L 45.804688 54.757812 C 45.804688 54.4375 45.914062 54.164062 46.128906 53.945312 C 46.347656 53.730469 46.617188 53.621094 46.941406 53.621094 C 47.269531 53.621094 47.515625 53.730469 47.726562 53.945312 C 47.941406 54.164062 48.042969 54.433594 48.042969 54.757812 L 48.042969 66.277344 C 48.042969 66.601562 47.933594 66.871094 47.71875 67.089844 Z M 47.71875 67.089844 " fill-opacity="1" fill-rule="nonzero"/><path fill="#ffffff" d="M 58.777344 57.769531 C 58.988281 57.988281 59.09375 58.257812 59.09375 58.582031 L 59.09375 63.316406 C 59.09375 64.660156 58.722656 65.710938 57.984375 66.46875 C 57.242188 67.226562 56.1875 67.605469 54.820312 67.605469 C 53.453125 67.605469 52.402344 67.226562 51.667969 66.46875 C 50.933594 65.710938 50.566406 64.660156 50.566406 63.316406 L 50.566406 58.582031 C 50.566406 58.261719 50.675781 57.988281 50.882812 57.769531 C 51.097656 57.550781 51.363281 57.445312 51.6875 57.445312 C 52.011719 57.445312 52.277344 57.554688 52.492188 57.769531 C 52.703125 57.988281 52.808594 58.257812 52.808594 58.582031 L 52.808594 63.316406 C 52.808594 64.078125 52.976562 64.640625 53.308594 65.003906 C 53.644531 65.371094 54.152344 65.554688 54.820312 65.554688 C 55.492188 65.554688 56.015625 65.371094 56.351562 65.003906 C 56.683594 64.640625 56.855469 64.078125 56.855469 63.316406 L 56.855469 58.582031 C 56.855469 58.261719 56.960938 57.988281 57.171875 57.769531 C 57.382812 57.550781 57.648438 57.445312 57.972656 57.445312 C 58.300781 57.445312 58.566406 57.554688 58.777344 57.769531 Z M 58.777344 57.769531 " fill-opacity="1" fill-rule="nonzero"/><path fill="#ffffff" d="M 68.425781 57.75 C 69.074219 58.078125 69.394531 58.519531 69.394531 59.066406 C 69.394531 59.339844 69.3125 59.578125 69.152344 59.785156 C 68.988281 59.992188 68.78125 60.089844 68.515625 60.089844 C 68.316406 60.089844 68.15625 60.0625 68.03125 60.007812 C 67.90625 59.949219 67.785156 59.875 67.667969 59.78125 C 67.550781 59.6875 67.433594 59.609375 67.324219 59.546875 C 67.199219 59.484375 67.019531 59.429688 66.773438 59.378906 C 66.53125 59.328125 66.335938 59.304688 66.1875 59.304688 C 65.253906 59.304688 64.523438 59.589844 63.996094 60.171875 C 63.464844 60.75 63.199219 61.507812 63.199219 62.4375 C 63.199219 63.367188 63.46875 64.074219 64.003906 64.664062 C 64.539062 65.253906 65.222656 65.546875 66.054688 65.546875 C 66.664062 65.546875 67.117188 65.472656 67.417969 65.324219 C 67.492188 65.285156 67.597656 65.21875 67.730469 65.125 C 67.859375 65.03125 67.980469 64.960938 68.089844 64.910156 C 68.203125 64.859375 68.339844 64.835938 68.5 64.835938 C 68.8125 64.835938 69.058594 64.9375 69.238281 65.132812 C 69.421875 65.332031 69.511719 65.585938 69.511719 65.898438 C 69.511719 66.210938 69.335938 66.476562 68.988281 66.738281 C 68.640625 67 68.179688 67.207031 67.605469 67.363281 C 67.035156 67.519531 66.425781 67.597656 65.777344 67.597656 C 64.820312 67.597656 63.976562 67.371094 63.246094 66.925781 C 62.519531 66.480469 61.957031 65.859375 61.558594 65.070312 C 61.160156 64.28125 60.960938 63.402344 60.960938 62.429688 C 60.960938 61.460938 61.171875 60.527344 61.585938 59.746094 C 62.003906 58.964844 62.582031 58.355469 63.332031 57.910156 C 64.078125 57.46875 64.921875 57.25 65.871094 57.25 C 66.929688 57.25 67.78125 57.414062 68.429688 57.742188 Z M 68.425781 57.75 " fill-opacity="1" fill-rule="nonzero"/><path fill="#ffffff" d="M 80.054688 65.113281 C 79.605469 65.902344 78.992188 66.515625 78.214844 66.949219 C 77.4375 67.382812 76.582031 67.601562 75.648438 67.601562 C 74.710938 67.601562 73.84375 67.382812 73.070312 66.949219 C 72.296875 66.515625 71.6875 65.902344 71.242188 65.113281 C 70.792969 64.324219 70.570312 63.433594 70.570312 62.441406 C 70.570312 61.445312 70.792969 60.554688 71.242188 59.765625 C 71.6875 58.976562 72.296875 58.363281 73.070312 57.921875 C 73.84375 57.480469 74.699219 57.257812 75.648438 57.257812 C 76.59375 57.257812 77.4375 57.480469 78.214844 57.921875 C 78.992188 58.359375 79.605469 58.976562 80.054688 59.765625 C 80.5 60.554688 80.726562 61.445312 80.726562 62.441406 C 80.726562 63.433594 80.5 64.328125 80.054688 65.113281 Z M 78.101562 60.808594 C 77.847656 60.332031 77.503906 59.960938 77.078125 59.699219 C 76.648438 59.4375 76.171875 59.308594 75.648438 59.308594 C 75.121094 59.308594 74.648438 59.441406 74.21875 59.699219 C 73.785156 59.960938 73.445312 60.332031 73.191406 60.808594 C 72.9375 61.289062 72.8125 61.832031 72.8125 62.441406 C 72.8125 63.050781 72.9375 63.589844 73.191406 64.0625 C 73.445312 64.53125 73.789062 64.898438 74.21875 65.160156 C 74.648438 65.421875 75.121094 65.550781 75.648438 65.550781 C 76.171875 65.550781 76.644531 65.417969 77.078125 65.160156 C 77.503906 64.898438 77.847656 64.53125 78.101562 64.0625 C 78.355469 63.589844 78.484375 63.050781 78.484375 62.441406 C 78.484375 61.832031 78.355469 61.289062 78.101562 60.808594 Z M 78.101562 60.808594 " fill-opacity="1" fill-rule="nonzero"/><path fill="#ffffff" d="M 81.84375 65.308594 C 81.84375 64.988281 82.007812 64.714844 82.328125 64.492188 C 82.503906 64.378906 82.679688 64.324219 82.871094 64.324219 C 83.132812 64.324219 83.378906 64.441406 83.617188 64.675781 C 83.988281 65.0625 84.378906 65.347656 84.785156 65.535156 C 85.1875 65.722656 85.675781 65.8125 86.246094 65.8125 C 87.214844 65.777344 87.703125 65.410156 87.703125 64.714844 C 87.703125 64.355469 87.535156 64.078125 87.207031 63.890625 C 86.878906 63.703125 86.363281 63.519531 85.667969 63.332031 C 84.945312 63.132812 84.359375 62.9375 83.90625 62.738281 C 83.449219 62.535156 83.058594 62.238281 82.726562 61.835938 C 82.398438 61.429688 82.234375 60.886719 82.234375 60.203125 C 82.234375 59.605469 82.40625 59.089844 82.746094 58.648438 C 83.089844 58.207031 83.539062 57.863281 84.09375 57.625 C 84.644531 57.378906 85.234375 57.261719 85.855469 57.261719 C 86.476562 57.261719 87.125 57.378906 87.761719 57.613281 C 88.394531 57.847656 88.894531 58.199219 89.253906 58.65625 C 89.414062 58.855469 89.496094 59.078125 89.496094 59.328125 C 89.496094 59.617188 89.378906 59.851562 89.144531 60.039062 C 88.96875 60.175781 88.769531 60.246094 88.546875 60.246094 C 88.269531 60.246094 88.046875 60.15625 87.875 59.980469 C 87.648438 59.707031 87.359375 59.492188 87.007812 59.328125 C 86.652344 59.167969 86.25 59.085938 85.804688 59.085938 C 84.859375 59.085938 84.382812 59.429688 84.382812 60.109375 C 84.382812 60.382812 84.46875 60.601562 84.644531 60.773438 C 84.820312 60.941406 85.039062 61.070312 85.308594 61.164062 C 85.574219 61.257812 85.953125 61.371094 86.4375 61.507812 C 87.109375 61.695312 87.671875 61.882812 88.117188 62.082031 C 88.5625 62.285156 88.945312 62.585938 89.253906 62.996094 C 89.566406 63.40625 89.722656 63.945312 89.722656 64.617188 C 89.722656 65.226562 89.539062 65.757812 89.179688 66.210938 C 88.820312 66.664062 88.355469 67.007812 87.789062 67.242188 C 87.222656 67.480469 86.640625 67.597656 86.042969 67.597656 C 85.222656 67.597656 84.457031 67.460938 83.746094 67.1875 C 83.039062 66.914062 82.460938 66.472656 82.011719 65.863281 C 81.898438 65.714844 81.84375 65.527344 81.84375 65.304688 Z M 81.84375 65.308594 " fill-opacity="1" fill-rule="nonzero"/><path fill="#ffffff" d="M 100.191406 62.925781 C 99.964844 63.113281 99.703125 63.207031 99.40625 63.207031 L 93.246094 63.207031 C 93.398438 63.9375 93.738281 64.515625 94.273438 64.929688 C 94.808594 65.34375 95.410156 65.554688 96.082031 65.554688 C 96.59375 65.554688 96.988281 65.507812 97.277344 65.414062 C 97.5625 65.320312 97.789062 65.21875 97.960938 65.117188 C 98.128906 65.011719 98.242188 64.9375 98.304688 64.902344 C 98.527344 64.789062 98.738281 64.734375 98.9375 64.734375 C 99.203125 64.734375 99.421875 64.828125 99.609375 65.015625 C 99.796875 65.203125 99.890625 65.417969 99.890625 65.667969 C 99.890625 66 99.71875 66.308594 99.371094 66.578125 C 99.023438 66.867188 98.554688 67.105469 97.96875 67.304688 C 97.382812 67.507812 96.792969 67.601562 96.195312 67.601562 C 95.152344 67.601562 94.238281 67.382812 93.460938 66.949219 C 92.683594 66.515625 92.082031 65.917969 91.660156 65.152344 C 91.238281 64.386719 91.027344 63.527344 91.027344 62.570312 C 91.027344 61.503906 91.25 60.566406 91.699219 59.757812 C 92.144531 58.949219 92.738281 58.332031 93.472656 57.902344 C 94.207031 57.472656 94.988281 57.257812 95.824219 57.257812 C 96.660156 57.257812 97.417969 57.484375 98.148438 57.929688 C 98.875 58.375 99.457031 58.980469 99.890625 59.738281 C 100.328125 60.496094 100.546875 61.316406 100.546875 62.199219 C 100.535156 62.496094 100.414062 62.738281 100.191406 62.925781 Z M 93.269531 61.339844 L 98.15625 61.339844 L 98.15625 61.210938 C 98.105469 60.6875 97.851562 60.242188 97.390625 59.867188 C 96.929688 59.496094 96.410156 59.308594 95.824219 59.308594 C 94.378906 59.308594 93.527344 59.984375 93.265625 61.335938 Z M 93.269531 61.339844 " fill-opacity="1" fill-rule="nonzero"/><g fill="#cbbaa3" fill-opacity="1"><g transform="translate(118.943741, 160.809533)"><g><path d="M 57.765625 -52.515625 C 56.378906 -55.066406 54.390625 -57.015625 51.796875 -58.359375 C 49.210938 -59.710938 46.171875 -60.390625 42.671875 -60.390625 C 36.617188 -60.390625 31.765625 -58.398438 28.109375 -54.421875 C 24.460938 -50.453125 22.640625 -45.148438 22.640625 -38.515625 C 22.640625 -31.441406 24.554688 -25.914062 28.390625 -21.9375 C 32.222656 -17.957031 37.492188 -15.96875 44.203125 -15.96875 C 48.796875 -15.96875 52.675781 -17.132812 55.84375 -19.46875 C 59.019531 -21.800781 61.335938 -25.160156 62.796875 -29.546875 L 39.0625 -29.546875 L 39.0625 -43.328125 L 79.75 -43.328125 L 79.75 -25.921875 C 78.363281 -21.253906 76.007812 -16.914062 72.6875 -12.90625 C 69.375 -8.894531 65.164062 -5.648438 60.0625 -3.171875 C 54.957031 -0.691406 49.195312 0.546875 42.78125 0.546875 C 35.195312 0.546875 28.429688 -1.109375 22.484375 -4.421875 C 16.535156 -7.742188 11.898438 -12.359375 8.578125 -18.265625 C 5.265625 -24.171875 3.609375 -30.921875 3.609375 -38.515625 C 3.609375 -46.097656 5.265625 -52.859375 8.578125 -58.796875 C 11.898438 -64.742188 16.515625 -69.375 22.421875 -72.6875 C 28.335938 -76.007812 35.085938 -77.671875 42.671875 -77.671875 C 51.859375 -77.671875 59.601562 -75.445312 65.90625 -71 C 72.21875 -66.550781 76.394531 -60.390625 78.4375 -52.515625 Z M 57.765625 -52.515625 "/></g></g></g><g fill="#cbbaa3" fill-opacity="1"><g transform="translate(202.300633, 160.809533)"><g><path d="M 25.484375 -80.953125 L 25.484375 0 L 6.78125 0 L 6.78125 -80.953125 Z M 25.484375 -80.953125 "/></g></g></g><g fill="#cbbaa3" fill-opacity="1"><g transform="translate(234.571343, 160.809533)"><g><path d="M 67.0625 -61.046875 L 67.0625 0 L 48.359375 0 L 48.359375 -8.3125 C 46.460938 -5.613281 43.890625 -3.441406 40.640625 -1.796875 C 37.398438 -0.160156 33.8125 0.65625 29.875 0.65625 C 25.195312 0.65625 21.070312 -0.378906 17.5 -2.453125 C 13.925781 -4.535156 11.15625 -7.546875 9.1875 -11.484375 C 7.21875 -15.421875 6.234375 -20.050781 6.234375 -25.375 L 6.234375 -61.046875 L 24.828125 -61.046875 L 24.828125 -27.90625 C 24.828125 -23.8125 25.882812 -20.632812 28 -18.375 C 30.125 -16.113281 32.972656 -14.984375 36.546875 -14.984375 C 40.191406 -14.984375 43.070312 -16.113281 45.1875 -18.375 C 47.300781 -20.632812 48.359375 -23.8125 48.359375 -27.90625 L 48.359375 -61.046875 Z M 67.0625 -61.046875 "/></g></g></g><g fill="#cbbaa3" fill-opacity="1"><g transform="translate(308.301709, 160.809533)"><g><path d="M 3.0625 -30.53125 C 3.0625 -36.875 4.351562 -42.414062 6.9375 -47.15625 C 9.53125 -51.894531 13.140625 -55.539062 17.765625 -58.09375 C 22.398438 -60.644531 27.710938 -61.921875 33.703125 -61.921875 C 41.359375 -61.921875 47.753906 -59.914062 52.890625 -55.90625 C 58.035156 -51.894531 61.410156 -46.242188 63.015625 -38.953125 L 43.109375 -38.953125 C 41.429688 -43.617188 38.1875 -45.953125 33.375 -45.953125 C 29.945312 -45.953125 27.207031 -44.617188 25.15625 -41.953125 C 23.113281 -39.296875 22.09375 -35.488281 22.09375 -30.53125 C 22.09375 -25.5625 23.113281 -21.742188 25.15625 -19.078125 C 27.207031 -16.421875 29.945312 -15.09375 33.375 -15.09375 C 38.1875 -15.09375 41.429688 -17.425781 43.109375 -22.09375 L 63.015625 -22.09375 C 61.410156 -14.945312 58.019531 -9.332031 52.84375 -5.25 C 47.664062 -1.164062 41.285156 0.875 33.703125 0.875 C 27.710938 0.875 22.398438 -0.398438 17.765625 -2.953125 C 13.140625 -5.503906 9.53125 -9.148438 6.9375 -13.890625 C 4.351562 -18.628906 3.0625 -24.175781 3.0625 -30.53125 Z M 3.0625 -30.53125 "/></g></g></g><g fill="#cbbaa3" fill-opacity="1"><g transform="translate(374.484028, 160.809533)"><g><path d="M 34.578125 0.875 C 28.585938 0.875 23.203125 -0.398438 18.421875 -2.953125 C 13.648438 -5.503906 9.894531 -9.148438 7.15625 -13.890625 C 4.425781 -18.628906 3.0625 -24.175781 3.0625 -30.53125 C 3.0625 -36.800781 4.445312 -42.320312 7.21875 -47.09375 C 9.988281 -51.875 13.78125 -55.539062 18.59375 -58.09375 C 23.40625 -60.644531 28.804688 -61.921875 34.796875 -61.921875 C 40.773438 -61.921875 46.171875 -60.644531 50.984375 -58.09375 C 55.796875 -55.539062 59.585938 -51.875 62.359375 -47.09375 C 65.128906 -42.320312 66.515625 -36.800781 66.515625 -30.53125 C 66.515625 -24.25 65.109375 -18.71875 62.296875 -13.9375 C 59.492188 -9.164062 55.664062 -5.503906 50.8125 -2.953125 C 45.96875 -0.398438 40.554688 0.875 34.578125 0.875 Z M 34.578125 -15.3125 C 38.148438 -15.3125 41.191406 -16.625 43.703125 -19.25 C 46.222656 -21.875 47.484375 -25.632812 47.484375 -30.53125 C 47.484375 -35.414062 46.257812 -39.171875 43.8125 -41.796875 C 41.375 -44.421875 38.367188 -45.734375 34.796875 -45.734375 C 31.148438 -45.734375 28.117188 -44.4375 25.703125 -41.84375 C 23.296875 -39.257812 22.09375 -35.488281 22.09375 -30.53125 C 22.09375 -25.632812 23.28125 -21.875 25.65625 -19.25 C 28.03125 -16.625 31.003906 -15.3125 34.578125 -15.3125 Z M 34.578125 -15.3125 "/></g></g></g><g fill="#cbbaa3" fill-opacity="1"><g transform="translate(444.166876, 160.809533)"><g/></g></g><g fill="#cbbaa3" fill-opacity="1"><g transform="translate(467.367661, 160.809533)"><g><path d="M 53.5 -16.953125 L 20.234375 -16.953125 L 14.109375 0 L 3.609375 0 L 31.1875 -75.8125 L 42.671875 -75.8125 L 70.125 0 L 59.625 0 Z M 50.65625 -25.046875 L 36.875 -63.5625 L 23.078125 -25.046875 Z M 50.65625 -25.046875 "/></g></g></g><g fill="#cbbaa3" fill-opacity="1"><g transform="translate(541.098026, 160.809533)"><g><path d="M 18.375 -76.25 L 18.375 0 L 8.421875 0 L 8.421875 -76.25 Z M 18.375 -76.25 "/></g></g></g></svg>